# xmcd CD database file
#
# Track frame offsets:
#	150
#	11049
#	23974
#	35522
#	48046
#	65462
#	71321
#	80248
#	91648
#	107621
#	115589
#	125574
#	133727
#	144730
#	157238
#	167565
#	178292
#	195418
#	202813
#	210011
#	216230
#	219463
#
# Disc length: 3029 seconds
#
# Revision: 0
# Processed by: cddbd v1.5.2PL0 Copyright (c) Steve Scherf et al.
# Submitted via: CDex 1.70beta2
#
DISCID=350bd316
DTITLE=Various Artist - Jazz and Cinéma vol. 5
DYEAR=2007
DGENRE=Jazz
TTITLE0=Henri Crolla and Hubert Rostaing - Boïdi Boïdi Boïdi Boï
TTITLE1=Henri Crolla and Hubert Rostaing - Dans ma tête
TTITLE2=Henri Crolla and Hubert Rostaing - Des filles sensass
TTITLE3=Henri Crolla and Hubert Rostaing - Jardin dans la nuit
TTITLE4=Henri Crolla and Hubert Rostaing - Paris BB
TTITLE5=Henri Crolla and Hubert Rostaing - La parisienne
TTITLE6=Henri Crolla and Hubert Rostaing - Valse du roi
TTITLE7=Henri Crolla and Hubert Rostaing - Duo du balcon
TTITLE8=Henri Crolla and André Hodeir - Paris Saint Tropez
TTITLE9=Henri Crolla and André Hodeir - Tumbleweed
TTITLE10=Henri Crolla and André Hodeir - Saint Tropez Blues
TTITLE11=Henri Crolla and André Hodeir - Générique La bravade
TTITLE12=Henri Crolla and André Hodeir - Mambo
TTITLE13=Henri Crolla and André Hodeir - Barbecue I
TTITLE14=Henri Crolla and André Hodeir - Saint tropez Blues (alt)
TTITLE15=Henri Crolla and André Hodeir - Tumbleweed (instr.)
TTITLE16=Henri Crolla and André Hodeir - Barbecue II
TTITLE17=Henri Crolla and André Hodeir - Blues pour flûte
TTITLE18=Henri Crolla and André Hodeir - Petit mambo
TTITLE19=Henri Crolla and André Hodeir - La ponche
TTITLE20=Henri Crolla and André Hodeir - Piano mécanique
TTITLE21=Henri Crolla and André Hodeir - Pot-pourri
EXTD=YEAR: 2007
EXTT0=
EXTT1=
EXTT2=
EXTT3=
EXTT4=
EXTT5=
EXTT6=
EXTT7=
EXTT8=
EXTT9=
EXTT10=
EXTT11=
EXTT12=
EXTT13=
EXTT14=
EXTT15=
EXTT16=
EXTT17=
EXTT18=
EXTT19=
EXTT20=
EXTT21=
PLAYORDER=
